<svg preserveAspectRatio="none" width="100%" height="100%" overflow="visible" style="display: block;" viewBox="0 0 1240 640" fill="none" xmlns="http://www.w3.org/2000/svg">
<g id="Visual" clip-path="url(#clip0_105_4072)">
<path id="Vector" d="M-1296.88 -1335.81V3368.9M-1143.97 -1335.81V3368.9M-991.051 -1335.81V3368.9M-838.135 -1335.81V3368.9M-685.219 -1335.81V3368.9M-532.304 -1335.81V3368.9M-379.388 -1335.81V3368.9M-226.472 -1335.81V3368.9M-73.5565 -1335.81V3368.9M79.3595 -1335.81V3368.9M232.275 -1335.81V3368.9M385.191 -1335.81V3368.9M538.106 -1335.81V3368.9M691.022 -1335.81V3368.9M843.938 -1335.81V3368.9M996.854 -1335.81V3368.9M1149.77 -1335.81V3368.9M1302.68 -1335.81V3368.9M1455.6 -1335.81V3368.9M1608.52 -1335.81V3368.9M1761.43 -1335.81V3368.9M1914.35 -1335.81V3368.9M2067.26 -1335.81V3368.9M2220.18 -1335.81V3368.9M2373.1 -1335.81V3368.9M2526.01 -1335.81V3368.9M2678.93 -1335.81V3368.9M2831.84 -1335.81V3368.9M2984.76 -1335.81V3368.9M3137.67 -1335.81V3368.9M3290.59 -1335.81V3368.9M3443.51 -1335.81V3368.9M3596.42 -1335.81V3368.9M3749.34 -1335.81V3368.9M3902.25 -1335.81V3368.9M4055.17 -1335.81V3368.9M4208.08 -1335.81V3368.9M4361 -1335.81V3368.9M285.207 4060L4359.94 1707.64M208.75 3927.58L4283.49 1575.23M132.292 3795.16L4207.03 1442.81M55.8339 3662.75L4130.57 1310.39M-20.6241 3530.33L4054.11 1177.97M-97.0821 3397.91L3977.65 1045.55M-173.54 3265.49L3901.2 913.136M-249.998 3133.07L3824.74 780.719M-326.456 3000.66L3748.28 648.3M-402.914 2868.24L3671.82 515.883M-479.371 2735.82L3595.36 383.464M-555.829 2603.4L3518.91 251.046M-632.287 2470.98L3442.45 118.628M-708.745 2338.57L3365.99 -13.7894M-785.203 2206.15L3289.53 -146.208M-861.661 2073.73L3213.08 -278.626M-938.118 1941.31L3136.62 -411.044M-1014.58 1808.89L3060.16 -543.462M-1091.03 1676.48L2983.7 -675.879M-1167.49 1544.06L2907.24 -808.298M-1243.95 1411.64L2830.79 -940.716M-1320.41 1279.22L2754.33 -1073.13M-1396.87 1146.8L2677.87 -1205.55M-1473.32 1014.39L2601.41 -1337.97M-1549.78 881.968L2524.95 -1470.39M-1626.24 749.55L2448.5 -1602.81M-1702.7 617.132L2372.04 -1735.22M-1779.16 484.714L2295.58 -1867.64M-1855.61 352.296L2219.12 -2000.06M-1932.07 219.878L2142.67 -2132.48M-2008.53 87.4603L2066.21 -2264.9M-2084.99 -44.9575L1989.75 -2397.31M-2161.44 -177.375L1913.29 -2529.73M-2237.9 -309.794L1836.83 -2662.15M-2314.36 -442.212L1760.38 -2794.57M-2390.82 -574.63L1683.92 -2926.99M-2467.28 -707.048L1607.46 -3059.4M-2543.73 -839.466L1531 -3191.82M-3066 1479.47L1008.74 3831.82M-2989.54 1347.05L1085.19 3699.4M-2913.08 1214.63L1161.65 3566.99M-2836.63 1082.21L1238.11 3434.57M-2760.17 949.794L1314.57 3302.15M-2683.71 817.376L1391.03 3169.73M-2607.25 684.958L1467.48 3037.31M-2530.79 552.54L1543.94 2904.9M-2454.34 420.122L1620.4 2772.48M-2377.88 287.704L1696.86 2640.06M-2301.42 155.286L1773.31 2507.64M-2224.96 22.8676L1849.77 2375.22M-2148.51 -109.55L1926.23 2242.81M-2072.05 -241.968L2002.69 2110.39M-1995.59 -374.386L2079.15 1977.97M-1919.13 -506.804L2155.6 1845.55M-1842.67 -639.222L2232.06 1713.13M-1766.22 -771.64L2308.52 1580.72M-1689.76 -904.058L2384.98 1448.3M-1613.3 -1036.48L2461.44 1315.88M-1536.84 -1168.89L2537.89 1183.46M-1460.38 -1301.31L2614.35 1051.04M-1383.93 -1433.73L2690.81 918.626M-1307.47 -1566.15L2767.27 786.208M-1231.01 -1698.57L2843.72 653.79M-1154.55 -1830.98L2920.18 521.372M-1078.1 -1963.4L2996.64 388.954M-1001.64 -2095.82L3073.1 256.536M-925.18 -2228.24L3149.56 124.118M-848.722 -2360.66L3226.01 -8.30051M-772.264 -2493.07L3302.47 -140.718M-695.806 -2625.49L3378.93 -273.136M-619.348 -2757.91L3455.39 -405.554M-542.89 -2890.33L3531.85 -537.972M-466.433 -3022.75L3608.3 -670.39M-389.975 -3155.16L3684.76 -802.808M-313.517 -3287.58L3761.22 -935.226M-237.059 -3420L3837.68 -1067.64" stroke="var(--stroke-0, #CBD5E1)" stroke-dasharray="14 14"/>
<g id="Cube">
<g id="Vector 3">
<path d="M1303.17 471.806V294.529L1149.53 383.168V560.444L1303.17 471.806Z" fill="var(--fill-0, #F8FAFC)"/>
<path d="M1303.17 471.806V294.529L1149.53 383.168V560.444L1303.17 471.806Z" fill="url(#paint0_linear_105_4072)" fill-opacity="0.2"/>
</g>
<g id="Vector 4">
<path d="M996 471.806L1149.53 560.444V383.168L996 294.529V471.806Z" fill="var(--fill-0, #F8FAFC)"/>
<path d="M996 471.806L1149.53 560.444V383.168L996 294.529V471.806Z" fill="url(#paint1_linear_105_4072)" fill-opacity="0.32"/>
</g>
<g id="Vector 2">
<path d="M1149.53 205.89L996 294.529L1149.53 383.167L1303.17 294.529L1149.53 205.89Z" fill="var(--fill-0, #F8FAFC)"/>
<path d="M1149.53 205.89L996 294.529L1149.53 383.167L1303.17 294.529L1149.53 205.89Z" fill="url(#paint2_linear_105_4072)" fill-opacity="0.1"/>
</g>
</g>
<g id="Cube_2">
<g id="Vector 3_2">
<path d="M234.166 382.915V205.639L80.5264 294.277V471.553L234.166 382.915Z" fill="var(--fill-0, #F8FAFC)"/>
<path d="M234.166 382.915V205.639L80.5264 294.277V471.553L234.166 382.915Z" fill="url(#paint3_linear_105_4072)" fill-opacity="0.2"/>
</g>
<g id="Vector 4_2">
<path d="M-73 382.915L80.526 471.553V294.277L-73 205.639V382.915Z" fill="var(--fill-0, #F8FAFC)"/>
<path d="M-73 382.915L80.526 471.553V294.277L-73 205.639V382.915Z" fill="url(#paint4_linear_105_4072)" fill-opacity="0.32"/>
</g>
<g id="Vector 2_2">
<path d="M80.526 117L-73 205.638L80.526 294.276L234.166 205.638L80.526 117Z" fill="var(--fill-0, #F8FAFC)"/>
<path d="M80.526 117L-73 205.638L80.526 294.276L234.166 205.638L80.526 117Z" fill="url(#paint5_linear_105_4072)" fill-opacity="0.1"/>
</g>
</g>
<g id="Ellipse 10" filter="url(#filter0_f_105_4072)">
<circle cx="620.5" cy="320.5" r="371.5" fill="var(--fill-0, #F8FAFC)"/>
</g>
</g>
<defs>
<filter id="filter0_f_105_4072" x="-7" y="-307" width="1255" height="1255" filterUnits="userSpaceOnUse" color-interpolation-filters="sRGB">
<feFlood flood-opacity="0" result="BackgroundImageFix"/>
<feBlend mode="normal" in="SourceGraphic" in2="BackgroundImageFix" result="shape"/>
<feGaussianBlur stdDeviation="128" result="effect1_foregroundBlur_105_4072"/>
</filter>
<linearGradient id="paint0_linear_105_4072" x1="1226.35" y1="585.374" x2="1226.35" y2="294.531" gradientUnits="userSpaceOnUse">
<stop stop-color="#334155"/>
<stop offset="1" stop-color="#64748B"/>
</linearGradient>
<linearGradient id="paint1_linear_105_4072" x1="1072.76" y1="585.374" x2="1072.76" y2="294.531" gradientUnits="userSpaceOnUse">
<stop stop-color="#334155"/>
<stop offset="1" stop-color="#64748B"/>
</linearGradient>
<linearGradient id="paint2_linear_105_4072" x1="1149.58" y1="399.787" x2="1149.58" y2="205.891" gradientUnits="userSpaceOnUse">
<stop stop-color="#334155"/>
<stop offset="1" stop-color="#64748B"/>
</linearGradient>
<linearGradient id="paint3_linear_105_4072" x1="157.346" y1="496.483" x2="157.346" y2="205.64" gradientUnits="userSpaceOnUse">
<stop stop-color="#334155"/>
<stop offset="1" stop-color="#64748B"/>
</linearGradient>
<linearGradient id="paint4_linear_105_4072" x1="3.76315" y1="496.483" x2="3.76315" y2="205.64" gradientUnits="userSpaceOnUse">
<stop stop-color="#334155"/>
<stop offset="1" stop-color="#64748B"/>
</linearGradient>
<linearGradient id="paint5_linear_105_4072" x1="80.5831" y1="310.896" x2="80.5831" y2="117.001" gradientUnits="userSpaceOnUse">
<stop stop-color="#334155"/>
<stop offset="1" stop-color="#64748B"/>
</linearGradient>
<clipPath id="clip0_105_4072">
<rect width="1240" height="640" fill="white"/>
</clipPath>
</defs>
</svg>
