<svg preserveAspectRatio="none" width="100%" height="100%" overflow="visible" style="display: block;" viewBox="0 0 40 40" fill="none" xmlns="http://www.w3.org/2000/svg">
<g id="Frame">
<g id="Vector">
<path d="M35 5C35.9205 5 36.6667 5.7462 36.6667 6.66667V33.3333C36.6667 34.2538 35.9205 35 35 35H5C4.07953 35 3.33333 34.2538 3.33333 33.3333V6.66667C3.33333 5.7462 4.07953 5 5 5H35ZM33.3333 8.33333H6.66667V31.6667H33.3333V8.33333ZM21.6667 28.3333V25H26.6667V20H30V28.3333H21.6667ZM18.3333 11.6667V15H13.3333V20H10V11.6667H18.3333Z" fill="var(--fill-0, #64748B)"/>
<path d="M35 5C35.9205 5 36.6667 5.7462 36.6667 6.66667V33.3333C36.6667 34.2538 35.9205 35 35 35H5C4.07953 35 3.33333 34.2538 3.33333 33.3333V6.66667C3.33333 5.7462 4.07953 5 5 5H35ZM33.3333 8.33333H6.66667V31.6667H33.3333V8.33333ZM21.6667 28.3333V25H26.6667V20H30V28.3333H21.6667ZM18.3333 11.6667V15H13.3333V20H10V11.6667H18.3333Z" fill="url(#paint0_linear_103_3194)"/>
</g>
</g>
<defs>
<linearGradient id="paint0_linear_103_3194" x1="20" y1="37.8125" x2="20" y2="5.00014" gradientUnits="userSpaceOnUse">
<stop stop-color="#C70C5B"/>
<stop offset="1" stop-color="#E8824F"/>
</linearGradient>
</defs>
</svg>
