<svg preserveAspectRatio="none" width="100%" height="100%" overflow="visible" style="display: block;" viewBox="0 0 40 40" fill="none" xmlns="http://www.w3.org/2000/svg">
<g id="Frame">
<g id="Vector">
<path d="M11.6667 19.1667C7.52453 19.1667 4.16667 15.8088 4.16667 11.6667C4.16667 7.52453 7.52453 4.16667 11.6667 4.16667C15.8088 4.16667 19.1667 7.52453 19.1667 11.6667C19.1667 15.8088 15.8088 19.1667 11.6667 19.1667ZM11.6667 35.8333C7.52453 35.8333 4.16667 32.4755 4.16667 28.3333C4.16667 24.1912 7.52453 20.8333 11.6667 20.8333C15.8088 20.8333 19.1667 24.1912 19.1667 28.3333C19.1667 32.4755 15.8088 35.8333 11.6667 35.8333ZM28.3333 19.1667C24.1912 19.1667 20.8333 15.8088 20.8333 11.6667C20.8333 7.52453 24.1912 4.16667 28.3333 4.16667C32.4755 4.16667 35.8333 7.52453 35.8333 11.6667C35.8333 15.8088 32.4755 19.1667 28.3333 19.1667ZM28.3333 35.8333C24.1912 35.8333 20.8333 32.4755 20.8333 28.3333C20.8333 24.1912 24.1912 20.8333 28.3333 20.8333C32.4755 20.8333 35.8333 24.1912 35.8333 28.3333C35.8333 32.4755 32.4755 35.8333 28.3333 35.8333ZM11.6667 15.8333C13.9678 15.8333 15.8333 13.9678 15.8333 11.6667C15.8333 9.36548 13.9678 7.5 11.6667 7.5C9.36548 7.5 7.5 9.36548 7.5 11.6667C7.5 13.9678 9.36548 15.8333 11.6667 15.8333ZM11.6667 32.5C13.9678 32.5 15.8333 30.6345 15.8333 28.3333C15.8333 26.0322 13.9678 24.1667 11.6667 24.1667C9.36548 24.1667 7.5 26.0322 7.5 28.3333C7.5 30.6345 9.36548 32.5 11.6667 32.5ZM28.3333 15.8333C30.6345 15.8333 32.5 13.9678 32.5 11.6667C32.5 9.36548 30.6345 7.5 28.3333 7.5C26.0322 7.5 24.1667 9.36548 24.1667 11.6667C24.1667 13.9678 26.0322 15.8333 28.3333 15.8333ZM28.3333 32.5C30.6345 32.5 32.5 30.6345 32.5 28.3333C32.5 26.0322 30.6345 24.1667 28.3333 24.1667C26.0322 24.1667 24.1667 26.0322 24.1667 28.3333C24.1667 30.6345 26.0322 32.5 28.3333 32.5Z" fill="var(--fill-0, #020617)"/>
<path d="M11.6667 19.1667C7.52453 19.1667 4.16667 15.8088 4.16667 11.6667C4.16667 7.52453 7.52453 4.16667 11.6667 4.16667C15.8088 4.16667 19.1667 7.52453 19.1667 11.6667C19.1667 15.8088 15.8088 19.1667 11.6667 19.1667ZM11.6667 35.8333C7.52453 35.8333 4.16667 32.4755 4.16667 28.3333C4.16667 24.1912 7.52453 20.8333 11.6667 20.8333C15.8088 20.8333 19.1667 24.1912 19.1667 28.3333C19.1667 32.4755 15.8088 35.8333 11.6667 35.8333ZM28.3333 19.1667C24.1912 19.1667 20.8333 15.8088 20.8333 11.6667C20.8333 7.52453 24.1912 4.16667 28.3333 4.16667C32.4755 4.16667 35.8333 7.52453 35.8333 11.6667C35.8333 15.8088 32.4755 19.1667 28.3333 19.1667ZM28.3333 35.8333C24.1912 35.8333 20.8333 32.4755 20.8333 28.3333C20.8333 24.1912 24.1912 20.8333 28.3333 20.8333C32.4755 20.8333 35.8333 24.1912 35.8333 28.3333C35.8333 32.4755 32.4755 35.8333 28.3333 35.8333ZM11.6667 15.8333C13.9678 15.8333 15.8333 13.9678 15.8333 11.6667C15.8333 9.36548 13.9678 7.5 11.6667 7.5C9.36548 7.5 7.5 9.36548 7.5 11.6667C7.5 13.9678 9.36548 15.8333 11.6667 15.8333ZM11.6667 32.5C13.9678 32.5 15.8333 30.6345 15.8333 28.3333C15.8333 26.0322 13.9678 24.1667 11.6667 24.1667C9.36548 24.1667 7.5 26.0322 7.5 28.3333C7.5 30.6345 9.36548 32.5 11.6667 32.5ZM28.3333 15.8333C30.6345 15.8333 32.5 13.9678 32.5 11.6667C32.5 9.36548 30.6345 7.5 28.3333 7.5C26.0322 7.5 24.1667 9.36548 24.1667 11.6667C24.1667 13.9678 26.0322 15.8333 28.3333 15.8333ZM28.3333 32.5C30.6345 32.5 32.5 30.6345 32.5 28.3333C32.5 26.0322 30.6345 24.1667 28.3333 24.1667C26.0322 24.1667 24.1667 26.0322 24.1667 28.3333C24.1667 30.6345 26.0322 32.5 28.3333 32.5Z" fill="url(#paint0_linear_103_3197)"/>
</g>
</g>
<defs>
<linearGradient id="paint0_linear_103_3197" x1="20" y1="38.8021" x2="20" y2="4.16682" gradientUnits="userSpaceOnUse">
<stop stop-color="#C70C5B"/>
<stop offset="1" stop-color="#E8824F"/>
</linearGradient>
</defs>
</svg>
