<svg preserveAspectRatio="none" width="100%" height="100%" overflow="visible" style="display: block;" viewBox="0 0 48 48" fill="none" xmlns="http://www.w3.org/2000/svg">
<g id="Frame">
<g id="Vector">
<path d="M24 44C12.9543 44 4 35.0456 4 24C4 12.9543 12.9543 4 24 4C35.0456 4 44 12.9543 44 24C44 35.0456 35.0456 44 24 44ZM24 40C32.8366 40 40 32.8366 40 24C40 15.1634 32.8366 8 24 8C15.1634 8 8 15.1634 8 24C8 32.8366 15.1634 40 24 40ZM26 24H34V28H22V14H26V24Z" fill="var(--fill-0, black)"/>
<path d="M24 44C12.9543 44 4 35.0456 4 24C4 12.9543 12.9543 4 24 4C35.0456 4 44 12.9543 44 24C44 35.0456 35.0456 44 24 44ZM24 40C32.8366 40 40 32.8366 40 24C40 15.1634 32.8366 8 24 8C15.1634 8 8 15.1634 8 24C8 32.8366 15.1634 40 24 40ZM26 24H34V28H22V14H26V24Z" fill="url(#paint0_linear_104_3308)"/>
</g>
</g>
<defs>
<linearGradient id="paint0_linear_104_3308" x1="24" y1="47.75" x2="24" y2="4.00019" gradientUnits="userSpaceOnUse">
<stop stop-color="#C70C5B"/>
<stop offset="1" stop-color="#E8824F"/>
</linearGradient>
</defs>
</svg>
