<svg preserveAspectRatio="none" width="100%" height="100%" overflow="visible" style="display: block;" viewBox="0 0 108 32.1081" fill="none" xmlns="http://www.w3.org/2000/svg">
<g id="SVG Logo 1" clip-path="url(#clip0_105_3372)">
<path id="Vector" fill-rule="evenodd" clip-rule="evenodd" d="M13.775 0.0623629C13.6652 0.0967689 13.448 0.19704 13.2922 0.285229C12.6578 0.644512 8.18148 3.2704 7.65098 3.59449C7.46513 3.70805 7.05241 3.95107 6.73382 4.1346C4.77407 5.26339 0.812115 7.61967 0.639834 7.75892C0.386412 7.96368 0.184734 8.25482 0.0798886 8.56728C0.00695099 8.78474 0 9.44251 0 16.1401C0 23.4422 0.000434353 23.476 0.100066 23.7425C0.220793 24.0655 0.494634 24.4236 0.752016 24.5952C0.856138 24.6646 1.22367 24.8805 1.56881 25.0752C2.41568 25.5527 4.9701 27.0247 8.44746 29.0392C9.4696 29.6314 10.4471 30.1951 10.6196 30.2919C10.7922 30.3888 11.4982 30.7938 12.1885 31.192C12.8787 31.5903 13.5304 31.9501 13.6366 31.9918C13.9173 32.1019 14.322 32.1385 14.6261 32.0814C14.9525 32.0199 15.1701 31.9112 16.3639 31.2126C16.8816 30.9096 17.555 30.5169 17.8603 30.3399C18.1656 30.1629 19.5233 29.369 20.8772 28.5758C22.2313 27.7827 23.6649 26.9445 24.0631 26.7132C24.4614 26.4819 25.1674 26.0695 25.632 25.7967C26.0965 25.524 26.7203 25.1617 27.018 24.9918C27.3158 24.822 27.5699 24.6658 27.5827 24.645C27.6074 24.605 27.536 24.5619 26.1147 23.7562C25.6235 23.4777 24.8198 23.0217 24.3287 22.7425C23.8375 22.4633 23.2308 22.1212 22.9804 21.9821L22.5252 21.7292L22.3529 21.8112C22.1875 21.8898 21.9227 22.0424 20.1049 23.1069C18.6245 23.974 18.1826 24.2321 17.5224 24.6154C17.1641 24.8237 16.5992 25.1544 16.2674 25.3506C15.9355 25.5468 15.4596 25.8092 15.2098 25.9338C14.7666 26.155 14.7453 26.1603 14.3169 26.1575C13.7349 26.1538 13.873 26.2191 11.4161 24.7815C11.0179 24.5485 9.85576 23.8693 8.83362 23.2721C6.28881 21.7855 6.23137 21.751 6.06238 21.6093C5.80326 21.3922 5.55615 21.0175 5.45233 20.6839C5.35747 20.3793 5.35085 20.2254 5.33155 17.873C5.3203 16.5041 5.32745 14.5146 5.34743 13.4514L5.38378 11.5185L5.5102 11.2469C5.67316 10.8968 5.92765 10.6176 6.26864 10.4145C6.76037 10.1216 7.43304 9.72984 9.31633 8.63933C12.3727 6.8695 13.0853 6.46518 13.5159 6.25666C13.9081 6.0667 13.9454 6.0582 14.3607 6.06346C14.8885 6.07014 15.0276 6.1186 15.8275 6.57439C16.1624 6.76516 16.5992 7.01113 16.7983 7.12097C16.9974 7.2308 18.214 7.92623 19.5016 8.66639C20.7892 9.40651 22.0245 10.1136 22.2466 10.2376L22.6505 10.4631L24.3705 9.4761C25.3166 8.93323 26.4549 8.28082 26.9004 8.02625C27.3457 7.77164 27.6933 7.54664 27.6727 7.52621C27.627 7.48093 25.0699 5.97586 20.4187 3.25661C20.1399 3.09367 18.8366 2.33138 17.5224 1.5627C16.2082 0.793975 15.0243 0.127116 14.8917 0.0807738C14.606 -0.0188685 14.063 -0.0278563 13.775 0.0623629Z" fill="var(--fill-0, #F8FAFC)"/>
<path id="Vector_2" d="M14.9046 26.2548C15.0427 26.2548 15.0991 26.2639 15.03 26.2748C14.9611 26.2859 14.8482 26.2859 14.7793 26.2748C14.7101 26.2639 14.7666 26.2548 14.9046 26.2548ZM27.6693 12.4544C27.6757 14.5377 27.6757 17.9483 27.6693 20.0333L27.6586 23.4727L22.5631 20.5419C22.5419 20.4446 22.5245 19.7954 22.5245 19.0647C22.5245 18.31 22.5154 17.6924 22.5043 17.6913C22.4819 17.6913 22.1941 17.8729 17.9388 20.5694C15.2665 22.2629 14.9544 22.4484 14.7849 22.4443C14.7763 22.4441 14.7682 22.444 14.7604 22.444C14.7456 22.4437 14.7321 22.4436 14.7188 22.4429C14.5753 22.434 14.4362 22.3508 12.8069 21.3763L12.5548 21.2254C10.9996 20.2954 10.059 19.7357 8.95015 19.08C7.94358 18.4848 7.8035 18.385 7.62369 18.1357C7.33245 17.7319 7.33042 17.7098 7.33042 14.8842C7.33042 13.4029 7.34786 12.3245 7.372 12.3087C7.4092 12.2845 8.07602 12.6723 11.665 14.8062C13.7279 16.0327 14.2936 16.3605 14.4483 16.419C14.6869 16.5094 15.1428 16.4979 15.3946 16.3952C15.5141 16.3464 16.2176 15.9201 16.9578 15.4477C17.5919 15.0432 18.4434 14.5019 19.006 14.1455L27.6589 9.08036L27.6693 12.4544Z" fill="url(#paint0_linear_105_3372)"/>
<path id="Vector_3" d="M30.8703 9.44835H34.33L37.9841 18.3729H38.1396L41.7937 9.44835H45.2534V22.7314H42.5323V14.0857H42.4221L38.9883 22.6665H37.1354L33.7015 14.0533H33.5914V22.7314H30.8703V9.44835Z" fill="var(--fill-0, #F8FAFC)"/>
<path id="Vector_4" d="M71.5812 9.44835V22.7314H69.158L63.3854 14.3711H63.2881V22.7314H60.4827V9.44835H62.9447L68.6721 17.8021H68.7886V9.44835H71.5812Z" fill="var(--fill-0, #F8FAFC)"/>
<path id="Vector_5" d="M73.0287 11.7638V9.44835H83.9262V11.7638H79.8639V22.7314H77.091V11.7638H73.0287Z" fill="var(--fill-0, #F8FAFC)"/>
<path id="Vector_6" d="M92.554 13.2685C92.5021 12.7453 92.2797 12.3389 91.8867 12.0492C91.4936 11.7595 90.9601 11.6146 90.2863 11.6146C89.8285 11.6146 89.4419 11.6795 89.1267 11.8092C88.8113 11.9346 88.5695 12.1097 88.4011 12.3346C88.2369 12.5594 88.1548 12.8145 88.1548 13.0999C88.1462 13.3377 88.1958 13.5453 88.3038 13.7225C88.4161 13.8998 88.5695 14.0533 88.7638 14.183C88.9582 14.3084 89.1827 14.4187 89.4376 14.5139C89.6925 14.6046 89.9646 14.6825 90.2539 14.7473L91.4461 15.0327C92.0248 15.1624 92.5561 15.3353 93.0399 15.5515C93.5236 15.7678 93.9425 16.0337 94.2968 16.3493C94.651 16.665 94.9252 17.0368 95.1196 17.4648C95.3183 17.8929 95.4198 18.3837 95.4242 18.9371C95.4198 19.75 95.2124 20.4549 94.8022 21.0516C94.3961 21.644 93.8087 22.1044 93.0399 22.4331C92.2754 22.7574 91.3532 22.9195 90.2734 22.9195C89.2022 22.9195 88.2692 22.7551 87.4745 22.4265C86.6841 22.0979 86.0665 21.6115 85.6216 20.9673C85.1811 20.3186 84.9499 19.5166 84.9283 18.561H87.6429C87.6732 19.0063 87.8006 19.3782 88.0253 19.6766C88.2542 19.9705 88.5586 20.1933 88.9388 20.3446C89.3231 20.4917 89.7572 20.5651 90.241 20.5651C90.7162 20.5651 91.1286 20.4959 91.4784 20.3575C91.8326 20.2192 92.107 20.0268 92.3013 19.7803C92.4957 19.5338 92.5929 19.2507 92.5929 18.9307C92.5929 18.6324 92.5043 18.3816 92.3272 18.1783C92.1544 17.9751 91.8996 17.8021 91.5627 17.6595C91.2301 17.5168 90.8219 17.3871 90.3382 17.2703L88.8934 16.9071C87.7748 16.6347 86.8915 16.2088 86.2435 15.6294C85.5956 15.05 85.2739 14.2695 85.2781 13.288C85.2739 12.4837 85.4876 11.7811 85.9196 11.1801C86.3559 10.5791 86.954 10.1099 87.7143 9.77264C88.4744 9.43538 89.3383 9.26676 90.3057 9.26676C91.2907 9.26676 92.1501 9.43538 92.8844 9.77264C93.623 10.1099 94.1974 10.5791 94.6077 11.1801C95.0181 11.7811 95.2297 12.4773 95.2427 13.2685H92.554Z" fill="var(--fill-0, #F8FAFC)"/>
<path id="Vector_7" d="M105.142 9.44835H107.947V18.0746C107.947 19.0431 107.716 19.8905 107.254 20.617C106.796 21.3434 106.155 21.9098 105.33 22.3163C104.505 22.7185 103.544 22.9195 102.447 22.9195C101.345 22.9195 100.382 22.7185 99.5571 22.3163C98.7321 21.9098 98.0908 21.3434 97.633 20.617C97.1752 19.8905 96.9463 19.0431 96.9463 18.0746V9.44835H99.7516V17.8346C99.7516 18.3404 99.8617 18.7902 100.082 19.1836C100.307 19.5771 100.622 19.8863 101.028 20.1112C101.434 20.3359 101.907 20.4483 102.447 20.4483C102.991 20.4483 103.464 20.3359 103.866 20.1112C104.272 19.8863 104.585 19.5771 104.805 19.1836C105.03 18.7902 105.142 18.3404 105.142 17.8346V9.44835Z" fill="var(--fill-0, #F8FAFC)"/>
<path id="Vector_8" d="M46.4807 22.7314H49.4868L50.4712 19.7024H55.2621L56.2444 22.7314H59.2506L54.6765 9.44835H51.0613L46.4807 22.7314ZM52.9207 12.4837L54.5511 17.5103H51.1836L52.8171 12.4837H52.9207Z" fill="var(--fill-0, #F8FAFC)"/>
</g>
<defs>
<linearGradient id="paint0_linear_105_3372" x1="27.6741" y1="17.6818" x2="7.33042" y2="17.6818" gradientUnits="userSpaceOnUse">
<stop stop-color="#C70C5B"/>
<stop offset="1" stop-color="#E8824F"/>
</linearGradient>
<clipPath id="clip0_105_3372">
<rect width="108" height="32.1081" fill="white"/>
</clipPath>
</defs>
</svg>
