<svg width="108" height="33" viewBox="0 0 108 33" fill="none" xmlns="http://www.w3.org/2000/svg">
<g clip-path="url(#clip0_102_2565)">
<path fill-rule="evenodd" clip-rule="evenodd" d="M13.775 0.0623629C13.6652 0.0967689 13.448 0.19704 13.2922 0.285229C12.6578 0.644512 8.18148 3.2704 7.65098 3.59449C7.46513 3.70805 7.05241 3.95107 6.73382 4.1346C4.77407 5.26339 0.812115 7.61967 0.639834 7.75892C0.386412 7.96368 0.184734 8.25482 0.0798886 8.56728C0.00695099 8.78474 0 9.44251 0 16.1401C0 23.4422 0.000434353 23.476 0.100066 23.7425C0.220793 24.0655 0.494634 24.4236 0.752016 24.5952C0.856138 24.6646 1.22367 24.8805 1.56881 25.0752C2.41568 25.5527 4.9701 27.0247 8.44746 29.0392C9.4696 29.6314 10.4471 30.1951 10.6196 30.2919C10.7922 30.3888 11.4982 30.7938 12.1885 31.192C12.8787 31.5903 13.5304 31.9501 13.6366 31.9918C13.9173 32.1019 14.322 32.1385 14.6261 32.0814C14.9525 32.0199 15.1701 31.9112 16.3639 31.2126C16.8816 30.9096 17.555 30.5169 17.8603 30.3399C18.1656 30.1629 19.5233 29.369 20.8772 28.5758C22.2313 27.7827 23.6649 26.9445 24.0631 26.7132C24.4614 26.4819 25.1674 26.0695 25.632 25.7967C26.0965 25.524 26.7203 25.1617 27.018 24.9918C27.3158 24.822 27.5699 24.6658 27.5827 24.645C27.6074 24.605 27.536 24.5619 26.1147 23.7562C25.6235 23.4777 24.8198 23.0217 24.3287 22.7425C23.8375 22.4633 23.2308 22.1212 22.9804 21.9821L22.5252 21.7292L22.3529 21.8112C22.1875 21.8898 21.9227 22.0424 20.1049 23.1069C18.6245 23.974 18.1826 24.2321 17.5224 24.6154C17.1641 24.8237 16.5992 25.1544 16.2674 25.3506C15.9355 25.5468 15.4596 25.8092 15.2098 25.9338C14.7666 26.155 14.7453 26.1603 14.3169 26.1575C13.7349 26.1538 13.873 26.2191 11.4161 24.7815C11.0179 24.5485 9.85576 23.8693 8.83362 23.2721C6.28881 21.7855 6.23137 21.751 6.06238 21.6093C5.80326 21.3922 5.55615 21.0175 5.45233 20.6839C5.35747 20.3793 5.35085 20.2254 5.33155 17.873C5.3203 16.5041 5.32745 14.5146 5.34743 13.4514L5.38378 11.5185L5.5102 11.2469C5.67316 10.8968 5.92765 10.6176 6.26864 10.4145C6.76037 10.1216 7.43304 9.72984 9.31633 8.63933C12.3727 6.8695 13.0853 6.46518 13.5159 6.25666C13.9081 6.0667 13.9454 6.0582 14.3607 6.06346C14.8885 6.07014 15.0276 6.1186 15.8275 6.57439C16.1624 6.76516 16.5992 7.01113 16.7983 7.12097C16.9974 7.2308 18.214 7.92623 19.5016 8.66639C20.7892 9.40651 22.0245 10.1136 22.2466 10.2376L22.6505 10.4631L24.3705 9.4761C25.3166 8.93323 26.4549 8.28082 26.9004 8.02625C27.3457 7.77164 27.6933 7.54664 27.6727 7.52621C27.627 7.48093 25.0699 5.97586 20.4187 3.25661C20.1399 3.09367 18.8366 2.33138 17.5224 1.5627C16.2082 0.793975 15.0243 0.127116 14.8917 0.0807738C14.606 -0.0188685 14.063 -0.0278563 13.775 0.0623629Z" fill="#0F172A"/>
<path d="M14.9045 26.2545C15.0426 26.2545 15.099 26.2636 15.0299 26.2745C14.961 26.2856 14.8481 26.2856 14.7792 26.2745C14.71 26.2636 14.7665 26.2545 14.9045 26.2545ZM27.6692 12.4541C27.6756 14.5374 27.6756 17.948 27.6692 20.033L27.6585 23.4725L22.563 20.5417C22.5418 20.4443 22.5244 19.7951 22.5244 19.0644C22.5244 18.3097 22.5153 17.6921 22.5042 17.691C22.4818 17.691 22.194 17.8726 17.9387 20.5691C15.2664 22.2626 14.9543 22.4481 14.7848 22.444C14.7762 22.4439 14.7681 22.4437 14.7603 22.4437C14.7455 22.4434 14.732 22.4433 14.7187 22.4426C14.5752 22.4338 14.4361 22.3505 12.8068 21.376L12.5547 21.2252C10.9995 20.2952 10.0589 19.7354 8.95005 19.0798C7.94348 18.4845 7.80341 18.3847 7.6236 18.1354C7.33235 17.7316 7.33032 17.7095 7.33032 14.884C7.33032 13.4026 7.34776 12.3242 7.3719 12.3084C7.4091 12.2842 8.07592 12.6721 11.6649 14.806C13.7278 16.0325 14.2935 16.3602 14.4482 16.4188C14.6868 16.5091 15.1428 16.4976 15.3945 16.3949C15.514 16.3462 16.2175 15.9198 16.9577 15.4474C17.5918 15.0429 18.4434 14.5016 19.0059 14.1452L27.6588 9.08008L27.6692 12.4541Z" fill="url(#paint0_linear_102_2565)"/>
<path d="M30.8704 9.44824H34.3301L37.9842 18.3728H38.1397L41.7938 9.44824H45.2535V22.7313H42.5324V14.0856H42.4222L38.9884 22.6664H37.1355L33.7016 14.0532H33.5915V22.7313H30.8704V9.44824Z" fill="#0F172A"/>
<path d="M71.5811 9.44824V22.7313H69.158L63.3853 14.371H63.2881V22.7313H60.4827V9.44824H62.9447L68.6721 17.802H68.7886V9.44824H71.5811Z" fill="#0F172A"/>
<path d="M73.0288 11.7637V9.44824H83.9263V11.7637H79.864V22.7313H77.0911V11.7637H73.0288Z" fill="#0F172A"/>
<path d="M92.5539 13.2684C92.502 12.7452 92.2796 12.3387 91.8866 12.049C91.4935 11.7593 90.96 11.6145 90.2862 11.6145C89.8284 11.6145 89.4418 11.6793 89.1266 11.8091C88.8113 11.9344 88.5694 12.1096 88.401 12.3344C88.2368 12.5593 88.1547 12.8144 88.1547 13.0997C88.1461 13.3376 88.1958 13.5451 88.3038 13.7224C88.416 13.8997 88.5694 14.0532 88.7637 14.1829C88.9581 14.3083 89.1827 14.4185 89.4375 14.5137C89.6924 14.6045 89.9645 14.6823 90.2539 14.7471L91.446 15.0326C92.0247 15.1623 92.5561 15.3352 93.0399 15.5514C93.5235 15.7676 93.9425 16.0336 94.2967 16.3491C94.6509 16.6648 94.9251 17.0366 95.1195 17.4647C95.3182 17.8927 95.4197 18.3836 95.4241 18.937C95.4197 19.7499 95.2124 20.4547 94.8021 21.0514C94.396 21.6438 93.8086 22.1043 93.0399 22.4329C92.2753 22.7572 91.3532 22.9194 90.2733 22.9194C89.2021 22.9194 88.2691 22.755 87.4744 22.4264C86.684 22.0978 86.0664 21.6113 85.6215 20.9672C85.181 20.3185 84.9498 19.5165 84.9282 18.5609H87.6428C87.6731 19.0061 87.8005 19.3781 88.0252 19.6764C88.2541 19.9704 88.5585 20.1931 88.9387 20.3445C89.323 20.4915 89.7571 20.5649 90.2409 20.5649C90.7161 20.5649 91.1285 20.4958 91.4783 20.3574C91.8326 20.219 92.1069 20.0266 92.3012 19.7801C92.4956 19.5337 92.5928 19.2505 92.5928 18.9306C92.5928 18.6322 92.5043 18.3815 92.3271 18.1782C92.1543 17.975 91.8995 17.8019 91.5626 17.6593C91.23 17.5167 90.8218 17.387 90.3382 17.2702L88.8933 16.9069C87.7747 16.6345 86.8914 16.2086 86.2434 15.6293C85.5955 15.0499 85.2738 14.2693 85.2781 13.2878C85.2738 12.4836 85.4875 11.781 85.9195 11.1799C86.3558 10.5789 86.954 10.1098 87.7142 9.77249C88.4743 9.43523 89.3382 9.2666 90.3057 9.2666C91.2906 9.2666 92.15 9.43523 92.8843 9.77249C93.6229 10.1098 94.1973 10.5789 94.6076 11.1799C95.0181 11.781 95.2297 12.4771 95.2426 13.2684H92.5539Z" fill="#0F172A"/>
<path d="M105.142 9.44824H107.947V18.0745C107.947 19.043 107.716 19.8904 107.254 20.6168C106.796 21.3433 106.155 21.9097 105.33 22.3162C104.505 22.7184 103.544 22.9194 102.447 22.9194C101.345 22.9194 100.382 22.7184 99.5572 22.3162C98.7322 21.9097 98.0909 21.3433 97.633 20.6168C97.1752 19.8904 96.9463 19.043 96.9463 18.0745V9.44824H99.7516V17.8345C99.7516 18.3403 99.8617 18.7901 100.082 19.1835C100.307 19.577 100.622 19.8862 101.028 20.1111C101.434 20.3358 101.907 20.4482 102.447 20.4482C102.991 20.4482 103.464 20.3358 103.866 20.1111C104.272 19.8862 104.585 19.577 104.805 19.1835C105.03 18.7901 105.142 18.3403 105.142 17.8345V9.44824Z" fill="#0F172A"/>
<path d="M46.4807 22.7313H49.4868L50.4712 19.7023H55.2621L56.2444 22.7313H59.2505L54.6765 9.44824H51.0613L46.4807 22.7313ZM52.9207 12.4836L54.5511 17.5102H51.1836L52.8171 12.4836H52.9207Z" fill="#0F172A"/>
</g>
<defs>
<linearGradient id="paint0_linear_102_2565" x1="27.674" y1="17.6815" x2="7.33032" y2="17.6815" gradientUnits="userSpaceOnUse">
<stop stop-color="#C70C5B"/>
<stop offset="1" stop-color="#E8824F"/>
</linearGradient>
<clipPath id="clip0_102_2565">
<rect width="108" height="32.1081" fill="white"/>
</clipPath>
</defs>
</svg>
