<?xml version="1.0" encoding="UTF-8"?>
<svg id="Laag_1" data-name="Laag 1" xmlns="http://www.w3.org/2000/svg" viewBox="0 0 821.02 259.61">
  <defs>
    <style>
      .cls-1 {
        fill: #fff;
      }
    </style>
  </defs>
  <path class="cls-1" d="M251.74,87.83h24.38l25.75,62.82h1.1l25.75-62.82h24.38v93.5h-19.17v-60.85h-.78l-24.2,60.4h-13.06l-24.2-60.63h-.78v61.08h-19.17v-93.5Z"/>
  <path class="cls-1" d="M538.6,87.83v93.5h-17.07l-40.68-58.85h-.68v58.85h-19.77v-93.5h17.35l40.36,58.8h.82v-58.8h19.68Z"/>
  <path class="cls-1" d="M548.8,104.12v-16.3h76.79v16.3h-28.62v77.2h-19.54v-77.2h-28.62Z"/>
  <path class="cls-1" d="M683.38,114.71c-.37-3.68-1.93-6.54-4.7-8.58-2.77-2.04-6.53-3.06-11.28-3.06-3.23,0-5.95.46-8.17,1.37-2.22.88-3.93,2.12-5.11,3.7-1.16,1.58-1.74,3.38-1.74,5.39-.06,1.67.29,3.13,1.05,4.38.79,1.25,1.87,2.33,3.24,3.24,1.37.88,2.95,1.66,4.75,2.33,1.8.64,3.71,1.19,5.75,1.64l8.4,2.01c4.08.91,7.82,2.13,11.23,3.65,3.41,1.52,6.36,3.39,8.86,5.62,2.5,2.22,4.43,4.84,5.8,7.85,1.4,3.01,2.11,6.47,2.15,10.36-.03,5.72-1.49,10.68-4.38,14.88-2.86,4.17-7,7.41-12.42,9.72-5.39,2.28-11.88,3.42-19.49,3.42s-14.12-1.16-19.72-3.47c-5.57-2.31-9.92-5.74-13.06-10.27-3.1-4.57-4.73-10.21-4.89-16.94h19.13c.21,3.13,1.11,5.75,2.69,7.85,1.61,2.07,3.76,3.64,6.44,4.7,2.71,1.04,5.77,1.55,9.18,1.55s6.25-.49,8.72-1.46c2.5-.97,4.43-2.33,5.8-4.06,1.37-1.74,2.05-3.73,2.05-5.98,0-2.1-.62-3.87-1.87-5.3-1.22-1.43-3.01-2.65-5.39-3.65-2.34-1-5.22-1.92-8.63-2.74l-10.18-2.56c-7.88-1.92-14.11-4.92-18.67-8.99-4.57-4.08-6.83-9.57-6.8-16.48-.03-5.66,1.48-10.61,4.52-14.84,3.07-4.23,7.29-7.53,12.65-9.91,5.36-2.37,11.44-3.56,18.26-3.56s13,1.19,18.17,3.56c5.2,2.37,9.25,5.68,12.14,9.91,2.89,4.23,4.38,9.13,4.47,14.7h-18.94Z"/>
  <path class="cls-1" d="M772.08,87.83h19.77v60.72c0,6.82-1.63,12.78-4.89,17.9-3.23,5.11-7.74,9.1-13.56,11.96-5.81,2.83-12.58,4.25-20.32,4.25s-14.55-1.42-20.36-4.25c-5.81-2.86-10.33-6.85-13.56-11.96-3.23-5.11-4.84-11.08-4.84-17.9v-60.72h19.77v59.03c0,3.56.78,6.73,2.33,9.5,1.58,2.77,3.81,4.95,6.67,6.53,2.86,1.58,6.19,2.37,10,2.37s7.17-.79,10-2.37c2.86-1.58,5.07-3.76,6.62-6.53,1.58-2.77,2.37-5.93,2.37-9.5v-59.03Z"/>
  <path class="cls-1" d="M361.73,181.32h21.18l6.94-21.32h33.76l6.92,21.32h21.18l-32.23-93.5h-25.47l-32.28,93.5ZM407.11,109.19l11.49,35.38h-23.73l11.51-35.38h.73Z"/>
  <g>
    <path class="cls-1" d="M122.66,136.95c-2.33,1.25-5.15,1.16-7.4-.23-10.79-6.69-40.95-25.4-40.95-25.4v36.85c0,3.17,1.63,6.12,4.33,7.8l35.22,21.92c2.97,1.85,6.74,1.85,9.71,0l57.31-31.51s-.25,20.92-.26,20.87l35.57,16.67c.06-.53.09-1.06.09-1.6v-95.48l-35.43,18.96-58.19,31.15Z"/>
    <path class="cls-1" d="M163.71,180.63l-38.36,22.14c-4.73,2.73-10.56,2.73-15.3,0l-47.88-27.64c-4.73-2.74-7.65-7.79-7.65-13.25v-55.29c0-5.47,2.92-10.52,7.65-13.25l47.88-27.65c4.74-2.73,10.57-2.73,15.3,0l42.5,24.54,36.75-19.65L125.35,24.82c-4.73-2.73-10.56-2.73-15.3,0L26.77,72.9c-4.73,2.73-7.65,7.78-7.65,13.25v96.17c0,5.46,2.92,10.51,7.65,13.24l83.28,48.09c4.74,2.73,10.57,2.73,15.3,0l77.14-44.54-38.78-18.48Z"/>
  </g>
</svg>