<svg preserveAspectRatio="none" width="100%" height="100%" overflow="visible" style="display: block;" viewBox="0 0 2843.75 2863.87" fill="none" xmlns="http://www.w3.org/2000/svg">
<path id="Vector" d="M677.455 798.164V2598.91M735.99 798.164V2598.91M794.525 798.164V2598.91M853.06 798.164V2598.91M911.595 798.164V2598.91M970.13 798.164V2598.91M1028.66 798.164V2598.91M1087.2 798.164V2598.91M1145.73 798.164V2598.91M1204.27 798.164V2598.91M1262.8 798.164V2598.91M1321.34 798.164V2598.91M1379.87 798.164V2598.91M1438.41 798.164V2598.91M1496.94 798.164V2598.91M1555.48 798.164V2598.91M1614.02 798.164V2598.91M1672.55 798.164V2598.91M1731.08 798.164V2598.91M1789.62 798.164V2598.91M1848.15 798.164V2598.91M1906.69 798.164V2598.91M1965.22 798.164V2598.91M2023.76 798.164V2598.91M2082.29 798.164V2598.91M2140.83 798.164V2598.91M2199.36 798.164V2598.91M2257.9 798.164V2598.91M2316.43 798.164V2598.91M2374.97 798.164V2598.91M2433.5 798.164V2598.91M2492.04 798.164V2598.91M2550.57 798.164V2598.91M2609.11 798.164V2598.91M2667.64 798.164V2598.91M2726.18 798.164V2598.91M2784.72 798.164V2598.91M2843.25 798.164V2598.91M1283.07 2863.43L2842.85 1963.06M1253.8 2812.75L2813.58 1912.38M1224.53 2762.07L2784.31 1861.69M1195.26 2711.38L2755.04 1811.01M1166 2660.7L2725.78 1760.33M1136.73 2610.02L2696.51 1709.64M1107.46 2559.33L2667.24 1658.96M1078.19 2508.65L2637.97 1608.27M1048.93 2457.96L2608.71 1557.59M1019.66 2407.28L2579.44 1506.91M990.392 2356.6L2550.17 1456.22M961.124 2305.91L2520.9 1405.54M931.857 2255.23L2491.64 1354.86M902.59 2204.55L2462.37 1304.17M873.322 2153.86L2433.1 1253.49M844.055 2103.18L2403.83 1202.81M814.787 2052.5L2374.57 1152.12M785.52 2001.81L2345.3 1101.44M756.252 1951.13L2316.03 1050.76M726.985 1900.45L2286.76 1000.07M697.717 1849.76L2257.5 949.389M668.45 1799.08L2228.23 898.706M639.182 1748.4L2198.96 848.022M609.914 1697.71L2169.69 797.339M580.647 1647.03L2140.43 746.655M551.379 1596.35L2111.16 695.972M522.112 1545.66L2081.89 645.288M492.845 1494.98L2052.62 594.604M463.577 1444.29L2023.36 543.921M434.309 1393.61L1994.09 493.237M405.042 1342.93L1964.82 442.554M375.775 1292.24L1935.55 391.87M346.507 1241.56L1906.29 341.187M317.24 1190.88L1877.02 290.503M287.972 1140.19L1847.75 239.82M258.705 1089.51L1818.48 189.136M229.437 1038.83L1789.22 138.453M200.169 988.143L1759.95 87.7693M0.249966 1875.72L1560.03 2776.1M29.5175 1825.04L1589.3 2725.41M58.785 1774.36L1618.56 2674.73M88.0525 1723.67L1647.83 2624.05M117.32 1672.99L1677.1 2573.36M146.587 1622.31L1706.37 2522.68M175.855 1571.62L1735.63 2472M205.122 1520.94L1764.9 2421.31M234.39 1470.26L1794.17 2370.63M263.657 1419.57L1823.44 2319.95M292.925 1368.89L1852.7 2269.26M322.192 1318.2L1881.97 2218.58M351.46 1267.52L1911.24 2167.89M380.727 1216.84L1940.51 2117.21M409.995 1166.15L1969.77 2066.53M439.262 1115.47L1999.04 2015.84M468.53 1064.79L2028.31 1965.16M497.797 1014.1L2057.58 1914.48M527.065 963.42L2086.84 1863.79M556.332 912.736L2116.11 1813.11M585.6 862.053L2145.38 1762.43M614.867 811.369L2174.65 1711.74M644.135 760.686L2203.91 1661.06M673.402 710.002L2233.18 1610.38M702.67 659.319L2262.45 1559.69M731.937 608.635L2291.72 1509.01M761.205 557.952L2320.98 1458.33M790.472 507.268L2350.25 1407.64M819.74 456.585L2379.52 1356.96M849.007 405.901L2408.79 1306.27M878.275 355.218L2438.05 1255.59M907.542 304.534L2467.32 1204.91M936.81 253.851L2496.59 1154.22M966.077 203.167L2525.86 1103.54M995.345 152.484L2555.12 1052.86M1024.61 101.8L2584.39 1002.17M1053.88 51.1166L2613.66 951.49M1083.15 0.433033L2642.93 900.807" stroke="var(--stroke-0, #334155)" stroke-dasharray="4 4"/>
</svg>
