<svg preserveAspectRatio="none" width="100%" height="100%" overflow="visible" style="display: block;" viewBox="0 0 148.279 171.155" fill="none" xmlns="http://www.w3.org/2000/svg">
<g id="Cube">
<g id="Union">
<path d="M147.779 43.0773V128.077L74.1123 170.577L0.5 128.077V43.0773L74.1123 0.577296L147.779 43.0773Z" fill="url(#paint0_linear_104_3290)"/>
<path d="M147.779 43.0773H148.279V42.7885L148.029 42.6442L147.779 43.0773ZM147.779 128.077L148.029 128.51L148.279 128.366V128.077H147.779ZM74.1123 170.577L73.8623 171.01L74.1122 171.155L74.3622 171.01L74.1123 170.577ZM0.5 128.077H0V128.366L0.25 128.51L0.5 128.077ZM0.5 43.0773L0.25 42.6443L0 42.7886V43.0773H0.5ZM74.1123 0.577296L74.3622 0.144203L74.1122 0L73.8623 0.144283L74.1123 0.577296ZM147.779 43.0773H147.279V128.077H147.779H148.279V43.0773H147.779ZM147.779 128.077L147.529 127.644L73.8624 170.144L74.1123 170.577L74.3622 171.01L148.029 128.51L147.779 128.077ZM74.1123 170.577L74.3623 170.144L0.75 127.644L0.5 128.077L0.25 128.51L73.8623 171.01L74.1123 170.577ZM0.5 128.077H1V43.0773H0.5H0V128.077H0.5ZM0.5 43.0773L0.75 43.5103L74.3623 1.01031L74.1123 0.577296L73.8623 0.144283L0.25 42.6443L0.5 43.0773ZM74.1123 0.577296L73.8624 1.01039L147.529 43.5104L147.779 43.0773L148.029 42.6442L74.3622 0.144203L74.1123 0.577296Z" fill="var(--stroke-0, #F8FAFC)"/>
</g>
</g>
<defs>
<linearGradient id="paint0_linear_104_3290" x1="74.1397" y1="0.577296" x2="74.1397" y2="85.5773" gradientUnits="userSpaceOnUse">
<stop stop-color="white" stop-opacity="0.08"/>
<stop offset="1" stop-color="white" stop-opacity="0.24"/>
</linearGradient>
</defs>
</svg>
